<?xml version="1.0" encoding="utf-8"?>
<!-- Generator: Adobe Illustrator 21.1.0, SVG Export Plug-In . SVG Version: 6.00 Build 0)  -->
<svg version="1.1" id="Layer_1" xmlns="http://www.w3.org/2000/svg" xmlns:xlink="http://www.w3.org/1999/xlink" x="0px" y="0px"
	 viewBox="0 0 600 600" style="enable-background:new 0 0 600 600;" xml:space="preserve">
<g>
	<path d="M380.5,224.5c0,0-25,37-29,49c0,0-38-8-52-8s-52,8-52,8c-4-12-29-49-29-49c-44,42-163.5,375-163.5,375h492
		C547,599.5,424.5,266.5,380.5,224.5z M297.1,449.8c-97.6,0-97.6-50.3-97.6-50.3s0-3,1-3c2,0,2,2,2,2s0,49,95,49c0.3,0,0.6,0,0.9,0
		c-0.9,0-0.9-1-0.9-1c-3-25,0-64,0-64s-10-1-10-6c0-4,11-4,11-4s11-0.6,11,4.2s-10,5.8-10,5.8s-3,39,0,64c0,0,0,0.9-0.9,1
		c94-0.4,106.9-49,106.9-49s1-1,2-1s0.5,2,0.5,2S394.6,449.8,297.1,449.8z"/>
	<path d="M298.6,447.5c0,0-0.1,0-0.1,0C298.5,447.5,298.5,447.5,298.6,447.5C298.5,447.5,298.5,447.5,298.6,447.5z"/>
</g>
</svg>
