<?xml version="1.0" encoding="utf-8"?>
<svg version="1.1" id="lightShape" xmlns="http://www.w3.org/2000/svg" xmlns:xlink="http://www.w3.org/1999/xlink" x="0px" y="0px"
	 viewBox="0 0 1000 1000" style="enable-background:new 0 0 1000 1000;" xml:space="preserve">
<style type="text/css">
	.st0{fill:#F0F4C3;}
</style>
<path class="st0" d="M689.9,550.9C836,526.9,1000,500,1000,500l-310.1-50.9C804.4,355.3,933,250,933,250L639,361
	C691.3,222.5,750,67,750,67L550.9,310.1C526.9,164,500,0,500,0l-50.9,310.1C355.3,195.6,250,67,250,67l111,294
	C222.5,308.7,67,250,67,250l243.1,199.1C164,473.1,0,500,0,500l310.1,50.9C195.6,644.7,67,750,67,750l294-111
	c-52.3,138.5-111,294-111,294l199.1-243.1C473.1,836,500,1000,500,1000l50.9-310.1C644.7,804.4,750,933,750,933L639,639
	c138.5,52.3,294,111,294,111L689.9,550.9z"/>
</svg>
